<svg xmlns="http://www.w3.org/2000/svg" xmlns:xlink="http://www.w3.org/1999/xlink" width="512" zoomAndPan="magnify" viewBox="0 0 384 305.999988" height="408" preserveAspectRatio="xMidYMid meet" version="1.0"><path fill="#f9b126" d="M 253.574219 77.769531 C 253.113281 77.769531 252.664062 77.808594 252.230469 77.839844 C 253.851562 75.335938 254.808594 72.347656 254.808594 69.136719 C 254.808594 60.273438 247.617188 53.089844 238.738281 53.089844 C 238.164062 53.089844 237.597656 53.125 237.03125 53.183594 C 237.078125 52.75 237.09375 52.304688 237.09375 51.855469 C 237.09375 44.585938 231.199219 38.6875 223.921875 38.6875 C 222.484375 38.6875 221.101562 38.929688 219.804688 39.351562 C 220.070312 38.214844 220.210938 37.027344 220.210938 35.808594 C 220.210938 26.945312 213.019531 19.761719 204.152344 19.761719 C 197.496094 19.761719 191.789062 23.804688 189.355469 29.570312 C 187.222656 27.808594 184.480469 26.757812 181.503906 26.757812 C 177.460938 26.757812 173.878906 28.703125 171.636719 31.699219 C 168.691406 28.421875 164.4375 26.347656 159.675781 26.347656 C 150.808594 26.347656 143.617188 33.53125 143.617188 42.390625 C 143.617188 44.210938 143.933594 45.949219 144.492188 47.585938 C 143.3125 47.160156 142.054688 46.917969 140.734375 46.917969 C 134.59375 46.917969 129.613281 51.890625 129.613281 58.027344 C 129.613281 58.734375 129.691406 59.425781 129.816406 60.09375 C 129.746094 60.09375 129.683594 60.082031 129.613281 60.082031 C 122.113281 60.082031 116.03125 66.164062 116.03125 73.667969 C 116.03125 74.832031 116.1875 75.957031 116.464844 77.035156 C 115.914062 76.980469 115.355469 76.957031 114.789062 76.957031 C 105.46875 76.957031 97.90625 84.507812 97.90625 93.824219 C 97.90625 103.144531 105.46875 110.691406 114.789062 110.691406 L 255.21875 110.691406 L 255.21875 110.617188 C 263.542969 109.785156 270.042969 102.761719 270.042969 94.234375 C 270.042969 85.140625 262.667969 77.769531 253.574219 77.769531 " fill-opacity="1" fill-rule="nonzero"/><path fill="#ef3629" d="M 245.015625 272.171875 L 124.550781 272.171875 L 105.46875 115.875 L 262.894531 115.875 L 245.011719 272.171875 " fill-opacity="1" fill-rule="nonzero"/><path fill="#9f2219" d="M 228.226562 266.96875 L 240.960938 266.96875 L 249.867188 189.152344 L 249.867188 121.074219 L 228.226562 121.074219 L 228.226562 266.96875 " fill-opacity="1" fill-rule="nonzero"/><path fill="#9f2219" d="M 191.648438 266.96875 L 213.289062 266.96875 L 213.289062 121.074219 L 191.648438 121.074219 Z M 191.648438 266.96875 " fill-opacity="1" fill-rule="nonzero"/><path fill="#9f2219" d="M 155.078125 266.96875 L 176.722656 266.96875 L 176.722656 121.074219 L 155.078125 121.074219 Z M 155.078125 266.96875 " fill-opacity="1" fill-rule="nonzero"/><path fill="#9f2219" d="M 118.5 184.898438 L 128.519531 266.96875 L 140.144531 266.96875 L 140.144531 121.074219 L 118.5 121.074219 L 118.5 184.898438 " fill-opacity="1" fill-rule="nonzero"/><path fill="#9f2219" d="M 100.5 116.273438 L 267.871094 116.273438 L 267.871094 102.367188 L 100.5 102.367188 Z M 100.5 116.273438 " fill-opacity="1" fill-rule="nonzero"/><path fill="#9f2219" d="M 118.835938 286.070312 L 249.527344 286.070312 L 249.527344 272.164062 L 118.835938 272.164062 Z M 118.835938 286.070312 " fill-opacity="1" fill-rule="nonzero"/></svg>
